<?xml version="1.0" encoding="UTF-8"?>
<!-- Generator: visioncortex VTracer 0.6.4 -->
<svg version="1.1" xmlns="http://www.w3.org/2000/svg" width="1024" height="1024">
<path d="M0 0 C337.92 0 675.84 0 1024 0 C1024 337.92 1024 675.84 1024 1024 C686.08 1024 348.16 1024 0 1024 C0 686.08 0 348.16 0 0 Z " fill="#F8FEFE" transform="translate(0,0)"/>
<path d="M0 0 C0.95 -0.03 1.9 -0.06 2.88 -0.09 C13.79 -0.18 21.2 3.14 29.07 10.68 C33.23 15.31 36.28 20.49 39.38 25.88 C40.1 27.1 40.82 28.33 41.55 29.55 C43.08 32.13 44.59 34.72 46.1 37.32 C48.44 41.32 50.79 45.3 53.16 49.28 C53.55 49.94 53.95 50.6 54.35 51.28 C55.15 52.62 55.94 53.96 56.74 55.3 C57.94 57.32 59.14 59.34 60.34 61.36 C65.6 70.26 70.93 79.11 76.31 87.94 C82.48 98.06 88.56 108.24 94.58 118.46 C98.12 124.48 101.71 130.46 105.31 136.44 C111.29 146.37 117.24 156.32 123.15 166.29 C124.36 168.33 125.57 170.37 126.78 172.41 C130.56 178.77 134.33 185.13 138.1 191.49 C140.08 194.85 142.07 198.21 144.06 201.56 C144.45 202.22 144.84 202.88 145.25 203.56 C151.31 213.78 157.46 223.95 163.65 234.09 C167.99 241.21 172.24 248.36 176.27 255.66 C180.1 262.57 184.21 269.31 188.29 276.07 C197.37 291.15 206.24 306.37 215.13 321.56 C218.93 328.05 222.75 334.54 226.6 341.01 C231.65 349.53 236.65 358.08 241.56 366.69 C242.11 367.63 242.65 368.58 243.21 369.55 C249.54 380.7 252.5 390.47 249.78 403.45 C247.68 409.96 244.41 414.66 239.44 419.31 C238.84 419.88 238.24 420.45 237.63 421.03 C230.89 426.74 222.37 428.67 213.63 428.52 C209.34 428.12 205.3 426.82 201.19 425.56 C200.16 425.26 199.14 424.95 198.09 424.63 C175.07 417.64 152.35 409.65 129.61 401.82 C119.76 398.43 109.89 395.11 100 391.83 C94.14 389.88 88.27 387.93 82.41 385.97 C80.53 385.34 78.65 384.72 76.77 384.09 C73.6 383.03 70.42 381.95 67.25 380.88 C66.37 380.58 65.48 380.29 64.57 379.99 C55.49 376.86 46.97 373.27 42.44 364.31 C40.48 359.41 40.9 355.77 42.72 350.86 C47.65 340.08 54.38 330.11 60.68 320.11 C63.65 315.38 66.54 310.59 69.44 305.81 C72.98 299.96 76.54 294.13 80.18 288.33 C80.78 287.37 81.38 286.41 81.99 285.43 C83.14 283.6 84.29 281.78 85.44 279.96 C86.21 278.74 86.21 278.74 86.99 277.49 C87.44 276.78 87.89 276.06 88.35 275.33 C91.33 269.79 91.12 263.42 90.44 257.31 C86.97 248.29 81.37 240.01 76.31 231.81 C75.55 230.57 74.79 229.33 74.03 228.09 C72.89 226.22 71.75 224.36 70.61 222.49 C67.52 217.45 64.47 212.39 61.44 207.31 C56.44 198.95 51.38 190.63 46.31 182.31 C41.93 175.12 37.59 167.9 33.3 160.65 C32.87 159.93 32.45 159.21 32 158.46 C29.92 154.94 27.84 151.41 25.77 147.88 C18.97 134.56 18.97 134.56 7.44 126.31 C1.28 125.54 -5.27 125.08 -10.94 128 C-14.23 130.61 -16.13 133.58 -18.27 137.17 C-18.62 137.74 -18.96 138.31 -19.32 138.9 C-20.04 140.1 -20.76 141.31 -21.48 142.51 C-23.19 145.35 -24.92 148.18 -26.64 151 C-28.03 153.29 -29.42 155.58 -30.81 157.88 C-31.18 158.48 -31.55 159.09 -31.93 159.72 C-36.97 168.02 -41.98 176.33 -46.97 184.67 C-50.88 191.19 -54.83 197.7 -58.78 204.2 C-60.96 207.79 -63.14 211.37 -65.32 214.96 C-67.11 217.91 -68.9 220.86 -70.69 223.81 C-72.72 227.14 -74.73 230.48 -76.75 233.81 C-77.35 234.8 -77.95 235.78 -78.57 236.79 C-88.19 251.49 -88.19 251.49 -89.56 268.31 C-87.11 275.96 -83.22 282.47 -78.88 289.19 C-77.53 291.3 -76.19 293.42 -74.85 295.53 C-74.15 296.63 -73.45 297.74 -72.73 298.87 C-69.01 304.76 -65.42 310.73 -61.81 316.69 C-55.99 326.32 -55.99 326.32 -50.11 335.91 C-49.6 336.74 -49.09 337.57 -48.56 338.42 C-47.64 339.92 -46.71 341.41 -45.78 342.9 C-41.71 349.49 -39.39 354.43 -40.96 362.29 C-42.79 368.4 -46.28 371.91 -51.56 375.31 C-65.07 381.24 -79.48 385.38 -93.46 390.04 C-96.81 391.15 -100.16 392.27 -103.52 393.39 C-109.14 395.26 -114.76 397.14 -120.39 399.01 C-126.84 401.16 -133.3 403.31 -139.75 405.46 C-145.34 407.33 -150.93 409.19 -156.52 411.06 C-159.84 412.16 -163.16 413.27 -166.48 414.37 C-217.59 431.44 -217.59 431.44 -232.56 424.31 C-240.92 419.44 -246.58 412.14 -249.86 403.07 C-253.08 390.37 -248.6 379.23 -242.21 368.31 C-240.99 366.31 -239.75 364.31 -238.5 362.31 C-237.16 360.13 -235.82 357.94 -234.49 355.76 C-233.83 354.68 -233.16 353.6 -232.48 352.49 C-229.63 347.77 -226.9 342.99 -224.19 338.19 C-220.65 331.95 -217.06 325.75 -213.35 319.61 C-209.18 312.72 -205.13 305.76 -201.06 298.81 C-196.01 290.18 -190.95 281.57 -185.78 273.01 C-182.93 268.27 -180.12 263.51 -177.31 258.75 C-176.76 257.81 -176.21 256.88 -175.64 255.91 C-172.88 251.24 -170.12 246.56 -167.37 241.89 C-161.72 232.32 -156.04 222.77 -150.31 213.25 C-144.77 204.04 -139.3 194.78 -133.88 185.5 C-128.73 176.7 -123.55 167.91 -118.29 159.18 C-115.24 154.12 -112.21 149.04 -109.2 143.96 C-108.81 143.3 -108.42 142.65 -108.02 141.97 C-107.22 140.61 -106.41 139.25 -105.6 137.89 C-98.77 126.35 -91.88 114.86 -84.89 103.41 C-79.45 94.49 -74.14 85.52 -68.88 76.5 C-62.69 65.9 -56.4 55.36 -49.98 44.9 C-47.58 41 -45.23 37.07 -42.9 33.13 C-41.98 31.59 -41.98 31.59 -41.05 30.02 C-39.9 28.09 -38.75 26.14 -37.62 24.2 C-28.35 8.7 -18.28 0.18 0 0 Z " fill="#0065C2" transform="translate(511.5625,196.6875)"/>
<path d="M0 0 C7.38 6.39 11.97 15.4 16.94 23.69 C17.69 24.94 18.45 26.19 19.2 27.44 C21.07 30.53 22.93 33.63 24.79 36.73 C26.28 39.22 27.78 41.71 29.27 44.19 C31.68 48.2 34.09 52.21 36.49 56.22 C37.83 58.46 39.17 60.69 40.51 62.93 C40.93 63.63 41.35 64.33 41.79 65.05 C42.57 66.35 43.35 67.65 44.14 68.95 C46.52 72.91 47.99 75.43 48.12 80.06 C48.16 80.88 48.2 81.7 48.24 82.54 C46.98 91.11 40.45 99.13 36 106.38 C34.47 108.87 32.95 111.37 31.43 113.86 C31.04 114.49 30.66 115.12 30.26 115.77 C27.68 119.99 25.13 124.23 22.61 128.48 C21.94 129.59 21.28 130.7 20.6 131.84 C19.37 133.92 18.13 136.01 16.9 138.09 C3.91 159.9 3.91 159.9 -5.19 162.44 C-11.55 163.06 -15.94 162.16 -21.19 158.44 C-26.5 152.58 -30.41 145.41 -34.5 138.69 C-35.18 137.57 -35.87 136.45 -36.58 135.29 C-38.03 132.91 -39.48 130.52 -40.94 128.14 C-42.83 125.02 -44.74 121.9 -46.65 118.78 C-48.17 116.29 -49.69 113.8 -51.21 111.31 C-51.93 110.12 -52.66 108.94 -53.38 107.75 C-55.06 105.01 -56.72 102.27 -58.36 99.51 C-59.55 97.5 -60.77 95.51 -62.01 93.53 C-65.63 87.5 -67.91 82.49 -66.19 75.44 C-64.27 71.05 -61.82 67.1 -59.25 63.06 C-58.53 61.89 -57.8 60.72 -57.08 59.54 C-55.57 57.08 -54.05 54.63 -52.52 52.18 C-50.21 48.48 -47.94 44.75 -45.69 41.01 C-42.16 35.16 -38.61 29.32 -35.05 23.49 C-33.39 20.76 -31.74 18.03 -30.11 15.3 C-29.24 13.86 -28.37 12.43 -27.5 11 C-27.14 10.39 -26.78 9.77 -26.4 9.14 C-23.4 4.24 -19.81 1 -14.88 -1.94 C-9.56 -3.17 -4.87 -2.39 0 0 Z " fill="#0064C2" transform="translate(521.1875,380.5625)"/>
<path d="M0 0 C32.01 0 64.02 0 97 0 C97 13.2 97 26.4 97 40 C89.12 43.38 89.12 43.38 85.74 43.36 C84.59 43.37 84.59 43.37 83.42 43.37 C82.6 43.36 81.78 43.35 80.94 43.34 C79.63 43.34 79.63 43.34 78.28 43.34 C75.4 43.34 72.51 43.32 69.63 43.29 C67.62 43.29 65.61 43.28 63.61 43.28 C58.34 43.27 53.07 43.24 47.8 43.21 C41.47 43.17 35.14 43.16 28.81 43.14 C19.21 43.11 9.6 43.05 0 43 C0 28.81 0 14.62 0 0 Z " fill="#0162C2" transform="translate(399,639)"/>
<path d="M0 0 C4.62 0 9.24 0 14 0 C14 3.3 14 6.6 14 10 C27.2 10 40.4 10 54 10 C54 12.64 54 15.28 54 18 C40.8 18 27.6 18 14 18 C14 21.63 14 25.26 14 29 C25.88 29 37.76 29 50 29 C50 31.64 50 34.28 50 37 C38.12 37 26.24 37 14 37 C14 40.3 14 43.6 14 47 C28.19 47 42.38 47 57 47 C57 50.3 57 53.6 57 57 C21.69 57 -13.62 57 -50 57 C-50 53.7 -50 50.4 -50 47 C-33.5 47 -17 47 0 47 C0 43.7 0 40.4 0 37 C-11.88 37 -23.76 37 -36 37 C-36 34.36 -36 31.72 -36 29 C-24.12 29 -12.24 29 0 29 C0 25.37 0 21.74 0 18 C-4.29 17.94 -8.57 17.94 -12.86 17.99 C-14.32 18 -15.77 17.99 -17.23 17.97 C-25.76 17.62 -25.76 17.62 -33.41 20.74 C-35.24 22.8 -35.24 22.8 -36.61 24.99 C-38.92 28.32 -42.38 30.27 -46 32 C-46.66 32 -47.32 32 -48 32 C-48.3 29.92 -48.57 27.84 -48.81 25.75 C-48.96 24.59 -49.11 23.43 -49.27 22.23 C-49 19 -49 19 -46.65 16.82 C-45.78 16.22 -44.9 15.62 -44 15 C-42.64 13.09 -42.64 13.09 -41.75 11.06 C-41.44 10.41 -41.12 9.77 -40.8 9.1 C-39.77 6.57 -39.77 6.57 -39 2 C-34.71 2.33 -30.42 2.66 -26 3 C-26.33 5.31 -26.66 7.62 -27 10 C-18.09 10 -9.18 10 0 10 C0 6.7 0 3.4 0 0 Z " fill="#0160C0" transform="translate(443,684)"/>
<path d="M0 0 C33 0 66 0 100 0 C100 3.3 100 6.6 100 10 C71.29 10 42.58 10 13 10 C13 36.73 13 63.46 13 91 C42.04 91 71.08 91 101 91 C101 94.3 101 97.6 101 101 C88.27 101.09 75.55 101.16 62.82 101.21 C56.91 101.23 51.01 101.26 45.1 101.3 C39.4 101.35 33.7 101.37 28 101.38 C25.82 101.39 23.64 101.4 21.47 101.42 C18.42 101.45 15.38 101.46 12.34 101.45 C11.43 101.47 10.53 101.48 9.59 101.5 C3.65 101.46 3.65 101.46 0.94 99.56 C-0.51 95.6 -0.39 91.83 -0.34 87.64 C-0.34 86.68 -0.34 85.72 -0.34 84.73 C-0.34 81.61 -0.32 78.5 -0.29 75.39 C-0.29 73.47 -0.29 71.55 -0.28 69.62 C-0.27 62.5 -0.23 55.37 -0.19 48.25 C-0.13 32.33 -0.06 16.4 0 0 Z " fill="#005DBE" transform="translate(528,640)"/>
<path d="M0 0 C0 3.63 0 7.26 0 11 C-17.75 13.3 -35.1 15.21 -53 15 C-53 18.96 -53 22.92 -53 27 C-33.53 27 -14.06 27 6 27 C6 29.97 6 32.94 6 36 C-1.26 36 -8.52 36 -16 36 C-16 46.89 -16 57.78 -16 69 C-20.29 69 -24.58 69 -29 69 C-29 58.11 -29 47.22 -29 36 C-36.92 36 -44.84 36 -53 36 C-53 39.63 -53 43.26 -53 47 C-54.46 54.99 -57.41 61.13 -64 66 C-67.35 68 -69.11 69 -73 69 C-73.59 62.65 -72.36 59.01 -69.19 53.49 C-66.56 47.99 -66.81 41.86 -66.68 35.88 C-66.66 35.03 -66.64 34.17 -66.62 33.29 C-66.56 30.57 -66.5 27.85 -66.44 25.12 C-66.39 23.27 -66.35 21.42 -66.31 19.57 C-66.2 15.05 -66.1 10.52 -66 6 C-64.74 5.89 -63.47 5.78 -62.17 5.66 C-57.39 5.24 -52.6 4.82 -47.82 4.4 C-45.76 4.22 -43.71 4.04 -41.66 3.86 C-30.34 2.87 -19.02 1.84 -7.73 0.6 C-2.19 0 -2.19 0 0 0 Z " fill="#0360C0" transform="translate(621,655)"/>
<path d="M0 0 C11 0 11 0 13.8 2.21 C14.49 3.26 15.17 4.3 15.88 5.38 C16.27 5.95 16.66 6.52 17.06 7.1 C17.92 8.36 18.77 9.63 19.61 10.91 C21.66 13.99 23.85 16.97 26.04 19.96 C28.14 22.84 30.21 25.74 32.28 28.65 C34.82 32.12 37.42 35.56 40 39 C40.33 26.13 40.66 13.26 41 0 C44.63 0 48.26 0 52 0 C52 19.8 52 39.6 52 60 C42 60 42 60 39.41 58.09 C38.78 57.19 38.15 56.3 37.5 55.38 C36.77 54.37 36.03 53.36 35.28 52.32 C34.91 51.78 34.53 51.24 34.15 50.68 C32.99 48.98 31.78 47.31 30.57 45.64 C28.01 42.12 25.51 38.56 23 35 C19.7 30.38 16.4 25.76 13 21 C12.67 33.87 12.34 46.74 12 60 C8.04 60 4.08 60 0 60 C0 40.2 0 20.4 0 0 Z " fill="#0764C3" transform="translate(622,766)"/>
<path d="M0 0 C11 0 11 0 14.24 3.09 C15.16 4.49 16.03 5.92 16.88 7.38 C17.87 8.93 18.87 10.49 19.87 12.04 C20.37 12.86 20.88 13.67 21.4 14.51 C24.09 18.7 27.05 22.68 30 26.69 C31.06 28.15 32.13 29.61 33.19 31.07 C33.63 31.69 34.08 32.3 34.54 32.94 C36.41 35.59 38.2 38.3 40 41 C40.33 27.47 40.66 13.94 41 0 C44.3 0 47.6 0 51 0 C51 19.8 51 39.6 51 60 C41 60 41 60 38.62 58.3 C38.09 57.5 37.55 56.7 37 55.88 C36.36 54.96 35.71 54.04 35.05 53.1 C34.37 52.08 33.7 51.05 33 50 C32.23 48.91 31.45 47.83 30.67 46.75 C28.09 43.18 25.55 39.59 23 36 C19.37 31.05 15.74 26.1 12 21 C11.67 33.87 11.34 46.74 11 60 C7.37 60 3.74 60 0 60 C0 40.2 0 20.4 0 0 Z " fill="#0260C0" transform="translate(433,766)"/>
<path d="M0 0 C2.1 1.55 3.39 2.92 5 5 C3.35 7.31 1.7 9.62 0 12 C-0.64 11.73 -1.28 11.46 -1.94 11.19 C-2.95 10.8 -3.96 10.4 -5 10 C-5.67 9.72 -6.33 9.45 -7.02 9.16 C-12.61 7.03 -17.17 6.41 -23 8 C-28.41 10.6 -31.92 14.39 -34 20 C-34.98 26.82 -34.85 33.38 -31.28 39.41 C-28.49 42.88 -25.14 44.62 -21 46 C-14.85 46.55 -10.4 46.24 -5 43 C-4.34 43 -3.68 43 -3 43 C-3 39.7 -3 36.4 -3 33 C-7.62 33 -12.24 33 -17 33 C-17 29.7 -17 26.4 -17 23 C-8.75 23 -0.5 23 8 23 C8.19 27 8.37 31 8.56 35.12 C8.64 36.38 8.73 37.63 8.81 38.91 C8.99 46.93 8.99 46.93 6.08 50.08 C3.78 51.63 1.53 52.85 -1 54 C-1.64 54.34 -2.29 54.69 -2.95 55.04 C-9.99 58.68 -20.52 58.22 -27.98 56.19 C-36.3 52.47 -42.13 45.9 -45.5 37.5 C-48.19 28.91 -47.56 21.27 -44 13 C-34.04 -3.8 -17.3 -7.97 0 0 Z " fill="#0360C0" transform="translate(544,769)"/>
<path d="M0 0 C13.86 0 27.72 0 42 0 C42 3.3 42 6.6 42 10 C32.1 10 22.2 10 12 10 C12 14.95 12 19.9 12 25 C20.58 25 29.16 25 38 25 C38 28.3 38 31.6 38 35 C29.42 35 20.84 35 12 35 C12 39.95 12 44.9 12 50 C22.23 50 32.46 50 43 50 C43 53.3 43 56.6 43 60 C28.81 60 14.62 60 0 60 C0 40.2 0 20.4 0 0 Z " fill="#0267C4" transform="translate(566,766)"/>
<path d="M0 0 C2.32 1.61 2.32 1.61 4 3 C2.8 6.08 1.52 9.06 0 12 C-6 10 -6 10 -8.94 8.88 C-13.69 7.52 -18.27 7.49 -23 9 C-23.08 10.26 -23.17 11.52 -23.25 12.81 C-23.32 13.87 -23.32 13.87 -23.39 14.96 C-23.17 17.11 -23.17 17.11 -21.47 18.65 C-18.21 20.43 -14.86 21.08 -11.25 21.81 C-3.31 23.62 2.22 26.01 7 32.88 C8.81 38.54 8.76 42.9 6.31 48.25 C3.85 52.66 1.05 55.18 -3.68 57.08 C-7.41 58.12 -10.9 58.38 -14.75 58.38 C-15.8 58.37 -15.8 58.37 -16.88 58.37 C-24.11 58.2 -30.06 56.52 -35.62 51.75 C-36.08 51.17 -36.53 50.6 -37 50 C-35.35 47.36 -33.7 44.72 -32 42 C-30.68 42.66 -29.36 43.32 -28 44 C-21.31 47.05 -13.9 48.82 -6.73 46.16 C-4.69 45.05 -4.69 45.05 -4 42.12 C-3.69 38.99 -3.69 38.99 -5.55 36.93 C-8.68 34.47 -11.37 33.88 -15.25 33 C-28.88 29.66 -28.88 29.66 -33.44 23.94 C-35.85 19.39 -36.35 16.13 -36 11 C-34.1 5.51 -30.68 2.24 -26 -1 C-17.69 -4.98 -8.32 -3.18 0 0 Z " fill="#0360C0" transform="translate(385,768)"/>
<path d="M0 0 C3.63 0 7.26 0 11 0 C11 19.47 11 38.94 11 59 C7.37 59 3.74 59 0 59 C0 39.53 0 20.06 0 0 Z " fill="#0066C4" transform="translate(406,767)"/>
<path d="M0 0 C22.77 0 45.54 0 69 0 C69 2.97 69 5.94 69 9 C46.23 9 23.46 9 0 9 C0 6.03 0 3.06 0 0 Z " fill="#EFF8FE" transform="translate(413,648)"/>
<path d="M0 0 C22.77 0 45.54 0 69 0 C69 2.31 69 4.62 69 7 C67 9 67 9 64.22 9.24 C63.03 9.24 61.84 9.23 60.62 9.23 C59.97 9.23 59.31 9.23 58.64 9.23 C56.48 9.23 54.31 9.21 52.15 9.2 C50.65 9.19 49.15 9.19 47.65 9.19 C43.7 9.18 39.75 9.16 35.8 9.14 C31.78 9.12 27.75 9.11 23.72 9.1 C15.81 9.08 7.91 9.04 0 9 C0 6.03 0 3.06 0 0 Z " fill="#F5FCFE" transform="translate(413,665)"/>
<path d="M0 0 C26.4 0 52.8 0 80 0 C80 0.33 80 0.66 80 1 C67.99 1.61 56.03 2.18 44 2 C44 5.3 44 8.6 44 12 C35.09 12 26.18 12 17 12 C17.33 9.69 17.66 7.38 18 5 C15.36 5 12.72 5 10 5 C10 4.01 10 3.02 10 2 C6.7 1.67 3.4 1.34 0 1 C0 0.67 0 0.34 0 0 Z " fill="#E7F3FD" transform="translate(399,682)"/>
<path d="M0 0 C32.01 0 64.02 0 97 0 C97 13.2 97 26.4 97 40 C96.34 40 95.68 40 95 40 C95 27.46 95 14.92 95 2 C63.98 2 32.96 2 1 2 C1 15.2 1 28.4 1 42 C29.05 42 57.1 42 86 42 C86 42.33 86 42.66 86 43 C57.62 43 29.24 43 0 43 C0 28.81 0 14.62 0 0 Z " fill="#004FB6" transform="translate(399,639)"/>
<path d="M0 0 C13.86 0 27.72 0 42 0 C42 3.3 42 6.6 42 10 C31.77 10 21.54 10 11 10 C11 9.67 11 9.34 11 9 C20.9 9 30.8 9 41 9 C41 6.69 41 4.38 41 2 C28.13 2 15.26 2 2 2 C2 20.48 2 38.96 2 58 C14.87 58 27.74 58 41 58 C41 56.02 41 54.04 41 52 C40.44 52.01 39.88 52.01 39.31 52.02 C36.73 52.04 34.14 52.05 31.56 52.06 C30.68 52.07 29.81 52.08 28.9 52.09 C23.18 52.11 17.67 51.73 12 51 C12 50.67 12 50.34 12 50 C22.23 50 32.46 50 43 50 C43 53.3 43 56.6 43 60 C28.81 60 14.62 60 0 60 C0 40.2 0 20.4 0 0 Z " fill="#1D65C4" transform="translate(566,766)"/>
<path d="M0 0 C3.63 0 7.26 0 11 0 C11 19.47 11 38.94 11 59 C7.37 59 3.74 59 0 59 C0 39.53 0 20.06 0 0 Z M1 1 C1 19.48 1 37.96 1 57 C3.64 57 6.28 57 9 57 C9 38.52 9 20.04 9 1 C6.36 1 3.72 1 1 1 Z " fill="#0A56BE" transform="translate(406,767)"/>
<path d="M0 0 C11.88 0 23.76 0 36 0 C36 0.33 36 0.66 36 1 C24.45 1 12.9 1 1 1 C1.33 2.65 1.66 4.3 2 6 C13.55 6 25.1 6 37 6 C37 6.66 37 7.32 37 8 C24.79 8 12.58 8 0 8 C0 5.36 0 2.72 0 0 Z " fill="#004DB5" transform="translate(407,713)"/>
<path d="M0 0 C8.58 0 17.16 0 26 0 C26 2.97 26 5.94 26 9 C17.09 9 8.18 9 -1 9 C-1 8.34 -1 7.68 -1 7 C7.25 7 15.5 7 24 7 C24 5.02 24 3.04 24 1 C16.08 1 8.16 1 0 1 C0 0.67 0 0.34 0 0 Z " fill="#0051B7" transform="translate(578,792)"/>
<path d="M0 0 C10.23 0 20.46 0 31 0 C31 2.97 31 5.94 31 9 C30.34 8.67 29.68 8.34 29 8 C29 6.02 29 4.04 29 2 C28.44 2.01 27.88 2.01 27.31 2.02 C24.73 2.04 22.14 2.05 19.56 2.06 C18.68 2.07 17.81 2.08 16.9 2.09 C11.18 2.11 5.67 1.73 0 1 C0 0.67 0 0.34 0 0 Z " fill="#004FB9" transform="translate(578,816)"/>
<path d="M0 0 C0.33 0.66 0.66 1.32 1 2 C0 4 -1 6 -2 8 C-2.71 11.24 -2.71 11.24 -3 14 C-2.01 14.33 -1.02 14.66 0 15 C-1.65 15.33 -3.3 15.66 -5 16 C-5.62 9.09 -4.11 5.52 0 0 Z " fill="#054FB9" transform="translate(553,708)"/>
<path d="M0 0 C0.33 0.66 0.66 1.32 1 2 C-1.09 6.95 -3.88 11.49 -8 15 C-6.51 9.2 -3.41 4.82 0 0 Z " fill="#0752BA" transform="translate(376,386)"/>
<path d="M0 0 C0.33 0 0.66 0 1 0 C1.29 1.13 1.58 2.27 1.88 3.44 C2.25 4.61 2.62 5.79 3 7 C3.66 7.33 4.32 7.66 5 8 C3.35 8.66 1.7 9.32 0 10 C0 6.7 0 3.4 0 0 Z " fill="#044BB5" transform="translate(395,706)"/>
<path d="M0 0 C1.65 0.33 3.3 0.66 5 1 C1.56 3.3 -0.94 3.54 -5 4 C-4.34 3.34 -3.68 2.68 -3 2 C-2.01 2 -1.02 2 0 2 C0 1.34 0 0.68 0 0 Z " fill="#085AC0" transform="translate(445,574)"/>
</svg>
